# xmcd
#
# Track frame offsets:
#	150
#	15795
#	34760
#	57163
#	88367
#	108110
#	124684
#	144307
#	166201
#	186630
#
# Disc length: 2728 seconds
#
# Revision: 0
# Processed by: cddbd v1.5.2PL0 Copyright (c) Steve Scherf et al.
# Submitted via: EasyCDDAExtractor 15.3.0.1
#
DISCID=7c0aa60a
DTITLE=Lance Lopez - Handmade Music
DYEAR=2011
DGENRE=Blues Rock
TTITLE0=Come Back Home
TTITLE1=Hard Time
TTITLE2=Let Go
TTITLE3=Dream Away
TTITLE4=Get Out And Walk
TTITLE5=Your Love
TTITLE6=Traveling Riverside Blues
TTITLE7=Letters
TTITLE8=Vaya Con Dios
TTITLE9=Black Cat Moan
EXTD=
EXTT0=
EXTT1=
EXTT2=
EXTT3=
EXTT4=
EXTT5=
EXTT6=
EXTT7=
EXTT8=
EXTT9=
PLAYORDER=
